Coordinates
version=1
nRows=24
nColumns=19
inDegrees=yes

Units are S.I. units (second, meters, Newtons, ...)
If the header above contains a line with 'inDegrees', this indicates whether rotational values are in degrees (yes) or radians (no).

endheader
time	pelvis_tilt	pelvis_list	pelvis_rotation	pelvis_tx	pelvis_ty	pelvis_tz	hip_flexion_r	hip_adduction_r	hip_rotation_r	knee_angle_r	knee_angle_r_beta	ankle_angle_r	hip_flexion_l	hip_adduction_l	hip_rotation_l	knee_angle_l	knee_angle_l_beta	ankle_angle_l
     15.34000000	     -2.63547898	     -1.28120787	     -0.15706733	      2.24112094	      0.92977810	      1.04031113	     21.15101694	      4.89320762	     -5.65613517	     16.67612773	      0.29105334	      4.49443002	    -14.59962435	     -6.24353936	     -7.77704272	     62.89691161	      1.09775820	     -5.18580471
     15.34666667	     -2.89515693	     -1.37873037	     -0.37272575	      2.24038678	      0.92383474	      1.04052854	     22.17010788	      4.87447489	     -6.06049133	     19.64514209	      0.34287241	      5.07326905	    -13.25889549	     -6.31930058	     -6.95108927	     66.70874537	      1.16428725	     -4.90665736
     15.35333333	     -2.70211965	     -1.64187771	     -0.66233384	      2.23969748	      0.91812398	      1.04067112	     22.57128555	      5.06091277	     -6.33809568	     22.51216288	      0.39291136	      5.79028464	    -12.46892803	     -6.55891323	     -6.36324003	     70.32220687	      1.22735405	     -4.61648072
     15.36000000	     -2.63033756	     -1.88259714	     -0.96080793	      2.23883210	      0.91210673	      1.04074238	     23.10594956	      5.22846650	     -6.51595053	     25.49021751	      0.44488822	      6.77397850	    -11.47027008	     -6.74572393	     -5.78794802	     73.90140543	      1.28982285	     -4.31803723
     15.36666667	     -2.69463414	     -2.10076293	     -1.25563447	      2.23778449	      0.90589232	      1.04073781	     23.75172926	      5.38517793	     -6.59165329	     28.48745940	      0.49719996	      8.04228415	    -10.23542185	     -6.90550832	     -5.22962748	     77.43050702	      1.35141729	     -4.02551732
     15.37333333	     -2.84875909	     -2.30950669	     -1.53841611	      2.23655947	      0.89965776	      1.04067738	     24.42380063	      5.55004306	     -6.58481464	     31.41459286	      0.54828808	      9.56037098	     -8.80293518	     -7.05314052	     -4.67423022	     80.89549824	      1.41189279	     -3.72438734
     15.38000000	     -3.12086845	     -2.52021837	     -1.83672234	      2.23509456	      0.89351715	      1.04060360	     25.12345927	      5.75881148	     -6.46866925	     34.18791935	      0.59669176	     11.29450994	     -7.13357917	     -7.21582793	     -4.15899921	     84.28796844	      1.47110257	     -3.44716777
     15.38666667	     -3.48817935	     -2.74295248	     -2.13793911	      2.23345846	      0.88763158	      1.04051386	     25.77940801	      6.01741864	     -6.26397723	     36.72085837	      0.64089988	     13.14421405	     -5.25461732	     -7.40257653	     -3.65908073	     87.57046474	      1.52839294	     -3.14994925
     15.39333333	     -3.84368619	     -2.97635626	     -2.43887419	      2.23159262	      0.88221780	      1.04039047	     26.26018041	      6.31694118	     -6.00087312	     38.95819348	      0.67994875	     15.08068846	     -3.26415420	     -7.60932606	     -3.17818797	     90.71969614	      1.58335739	     -2.91981145
     15.40000000	     -4.23579883	     -3.20105510	     -2.72829543	      2.22949901	      0.87734908	      1.04029133	     26.60998978	      6.63015835	     -5.68629901	     40.88513668	      0.71358025	     16.97286314	     -1.10431693	     -7.83456130	     -2.69421393	     93.70995029	      1.63554717	     -2.71339248
     15.40666667	     -4.29041313	     -3.48409954	     -3.03270271	      2.22735223	      0.87352050	      1.04017406	     26.33579273	      7.02107397	     -5.31636428	     42.35642302	      0.73925904	     18.85171216	      0.74211199	     -8.13754456	     -2.29676716	     96.43114259	      1.68304094	     -2.43566960
     15.41333333	     -4.95909745	     -3.57327203	     -3.26965505	      2.22491759	      0.86975164	      1.04002067	     26.62943078	      7.20522201	     -4.94916032	     43.61472951	      0.76122063	     20.46728937	      3.49656188	     -8.17982147	     -1.69340390	     99.03206451	      1.72843559	     -2.39332458
     15.42000000	     -5.17235557	     -3.72002725	     -3.51782176	      2.22242465	      0.86724417	      1.03985187	     26.16381384	      7.43700266	     -4.56463180	     44.37646388	      0.77451541	     21.94356413	      5.78657571	     -8.30302595	     -1.20938652	    101.29814457	      1.76798615	     -2.26481489
     15.42666667	     -4.77775278	     -3.78460214	     -3.87630346	      2.21998357	      0.86629384	      1.03978980	     24.81900606	      7.63411996	     -3.91326200	     44.75600941	      0.78113972	     23.10429387	      7.37117416	     -8.27089686	     -0.93679609	    103.07893658	      1.79906683	     -2.20534366
     15.43333333	     -5.61252515	     -3.77474022	     -3.88059374	      2.21740653	      0.86452790	      1.03942366	     24.68822299	      7.60540388	     -3.77817661	     44.86888262	      0.78310973	     24.25935165	     10.63561383	     -8.18877377	     -0.19570590	    104.89380101	      1.83074219	     -2.13822091
     15.44000000	     -5.69800192	     -3.66985657	     -4.04856817	      2.21492638	      0.86445090	      1.03917724	     23.54883374	      7.53001743	     -3.35033696	     44.61224807	      0.77863062	     25.05315399	     12.95390602	     -7.94511769	      0.20431702	    106.15215899	      1.85270468	     -2.08477107
     15.44666667	     -5.47500223	     -3.43057591	     -4.32911148	      2.21248049	      0.86544985	      1.03906682	     21.94541701	      7.35428350	     -2.67230854	     44.09742638	      0.76964528	     25.58180958	     14.86060110	     -7.56045092	      0.33796562	    106.96778387	      1.86694002	     -1.97709116
     15.45333333	     -5.43856217	     -3.14905520	     -4.49886615	      2.21032055	      0.86694148	      1.03886406	     20.35908420	      7.06440354	     -2.17009830	     43.23174706	      0.75453633	     25.97943633	     16.96318131	     -7.13062766	      0.49564919	    107.43808849	      1.87514839	     -1.89255592
     15.46000000	     -5.48540117	     -2.81142253	     -4.60667288	      2.20825105	      0.86894183	      1.03859126	     18.77058306	      6.68786933	     -1.72446497	     42.15994631	      0.73582988	     26.08509554	     19.12845338	     -6.62778153	      0.61365750	    107.56655600	      1.87739057	     -1.78604238
     15.46666667	     -5.60444294	     -2.45497418	     -4.61365377	      2.20640147	      0.87139239	      1.03825113	     17.16157939	      6.25534773	     -1.39641791	     40.88597919	      0.71359495	     25.90707645	     21.31966200	     -6.10694650	      0.72566333	    107.37388585	      1.87402784	     -1.70935015
     15.47333333	     -5.75094549	     -2.07167980	     -4.58675986	      2.20469700	      0.87436800	      1.03786373	     15.49950405	      5.78625308	     -1.09277228	     39.41656705	      0.68794887	     25.42964564	     23.44964874	     -5.52455099	      0.79753544	    106.83771572	      1.86466990	     -1.61055710
     15.48000000	     -5.99555789	     -1.59863324	     -4.60165366	      2.20341945	      0.87779865	      1.03755172	     13.86963930	      5.23013611	     -0.76812970	     37.79743979	      0.65968977	     24.69997392	     25.49640833	     -4.90186034	      0.67316231	    105.88824222	      1.84809847	     -1.40081749
     15.48666667	     -5.77410124	     -1.37500466	     -4.37573295	      2.20255069	      0.88222329	      1.03700651	     11.51826537	      4.82172715	     -0.81964270	     35.77087024	      0.62431946	     23.52131098	     26.90315926	     -4.49204293	      0.72198259	    104.62529083	      1.82605581	     -1.28925476
     15.49333333	     -6.19333167	     -0.75427222	     -4.46022614	      2.20179957	      0.88622851	      1.03672268	     10.06506056	      4.12619545	     -0.41479629	     34.04979018	      0.59428095	     22.17634360	     28.81494011	     -3.78905711	      0.31207018	    103.02296004	      1.79808986	     -0.93103320
